PathFileType	4	(X/Y/Z)	 2.2Hzhigh3min.trc
DataRate	CameraRate	NumFrames	NumMarkers	Units	OrigDataRate	OrigDataStartFrame	OrigNumFrames
200	200	9	43	m	200	1	1000
Frame#	Time	C7			LSH			RSH			MAN			RASI			LASI			HIPR			HIPL			RPSI			LPSI			COX			RTHI1			RTHI2			RTHI3			RTHI4			RLKN			RMKN			RSHA1			RSHA2			RSHA3			RSHA4			RLMAL			RMMAL			RHEEL			RMET5			RMET1			RTOE			LTHI1			LTHI2			LTHI3			LTHI4			LLKN			LMKN			LSHA1			LSHA2			LSHA3			LSHA4			LLMAL			LMMAL			LHEEL			LMET5			LMET1			LTOE			
		X1	Y1	Z1	X2	Y2	Z2	X3	Y3	Z3	X4	Y4	Z4	X5	Y5	Z5	X6	Y6	Z6	X7	Y7	Z7	X8	Y8	Z8	X9	Y9	Z9	X10	Y10	Z10	X11	Y11	Z11	X12	Y12	Z12	X13	Y13	Z13	X14	Y14	Z14	X15	Y15	Z15	X16	Y16	Z16	X17	Y17	Z17	X18	Y18	Z18	X19	Y19	Z19	X20	Y20	Z20	X21	Y21	Z21	X22	Y22	Z22	X23	Y23	Z23	X24	Y24	Z24	X25	Y25	Z25	X26	Y26	Z26	X27	Y27	Z27	X28	Y28	Z28	X29	Y29	Z29	X30	Y30	Z30	X31	Y31	Z31	X32	Y32	Z32	X33	Y33	Z33	X34	Y34	Z34	X35	Y35	Z35	X36	Y36	Z36	X37	Y37	Z37	X38	Y38	Z38	X39	Y39	Z39	X40	Y40	Z40	X41	Y41	Z41	X42	Y42	Z42	X43	Y43	Z43	
1	0.0050	-0.277453	1.517751	-0.504933	-0.200276	1.506440	-0.668293	-0.200241	1.499535	-0.357427	-0.149580	1.461233	-0.510753	-0.140675	1.023504	-0.385959	-0.146664	1.026167	-0.630104	-0.182918	1.087197	-0.366126	-0.189327	1.096393	-0.650890	-0.297420	1.078692	-0.473411	-0.305440	1.079381	-0.540213	-0.304485	1.074195	-0.506621	-0.254751	0.849351	-0.333005	-0.241593	0.790930	-0.330586	-0.178326	0.801447	-0.322891	-0.183042	0.862960	-0.324292	-0.236048	0.597253	-0.352074	-0.212115	0.582110	-0.475137	-0.311109	0.436688	-0.360629	-0.306063	0.396063	-0.368184	-0.258328	0.392267	-0.340310	-0.256081	0.436295	-0.334990	-0.269199	0.244277	-0.366522	-0.237164	0.247553	-0.437276	-0.313072	0.240555	-0.410651	-0.192314	0.141921	-0.340757	-0.152617	0.145898	-0.399368	-0.132115	0.130288	-0.394606	-0.262777	0.862911	-0.680717	-0.247680	0.803465	-0.685830	-0.183981	0.814265	-0.693850	-0.191917	0.873865	-0.690692	-0.228272	0.582307	-0.671534	-0.211630	0.579420	-0.553170	-0.306400	0.406187	-0.665723	-0.309042	0.366841	-0.656767	-0.250820	0.363391	-0.678004	-0.255881	0.406649	-0.685019	-0.277014	0.247383	-0.661537	-0.260701	0.247324	-0.586387	-0.325489	0.256507	-0.612702	-0.221194	0.134949	-0.662119	-0.190319	0.136474	-0.598125	-0.174444	0.117912	-0.597837	
2	0.0100	-0.277218	1.518098	-0.504907	-0.200036	1.506696	-0.668247	-0.199890	1.499624	-0.357277	-0.149389	1.461306	-0.510785	-0.141105	1.023864	-0.386153	-0.146995	1.026776	-0.630202	-0.183645	1.087401	-0.366324	-0.190148	1.096653	-0.650968	-0.298063	1.078296	-0.473451	-0.305868	1.078718	-0.539910	-0.305161	1.073840	-0.506635	-0.254081	0.849339	-0.332715	-0.240692	0.790949	-0.330541	-0.177420	0.801630	-0.323169	-0.182354	0.863156	-0.324383	-0.234946	0.597462	-0.351934	-0.211572	0.582144	-0.475118	-0.310650	0.437139	-0.360648	-0.305621	0.396479	-0.367964	-0.257871	0.392586	-0.340285	-0.255474	0.436543	-0.334884	-0.269126	0.244738	-0.366427	-0.237159	0.247871	-0.437246	-0.313164	0.240658	-0.410417	-0.191870	0.143097	-0.340416	-0.152224	0.147086	-0.398993	-0.131597	0.131823	-0.394057	-0.262765	0.862531	-0.681054	-0.247148	0.803209	-0.686134	-0.183507	0.814586	-0.693987	-0.191967	0.874080	-0.690840	-0.227324	0.582599	-0.671869	-0.211266	0.579984	-0.553184	-0.306815	0.407037	-0.666038	-0.309521	0.367558	-0.656677	-0.251535	0.363884	-0.678204	-0.256252	0.407179	-0.685313	-0.278140	0.248003	-0.661620	-0.261863	0.247927	-0.586419	-0.326716	0.257046	-0.612717	-0.222055	0.136040	-0.662633	-0.191132	0.137390	-0.598638	-0.175131	0.119060	-0.598535	
3	0.0150	-0.277002	1.518101	-0.504886	-0.199909	1.506709	-0.668164	-0.199611	1.499427	-0.357258	-0.149331	1.461092	-0.510841	-0.141523	1.023973	-0.386324	-0.147413	1.026953	-0.630340	-0.184334	1.087364	-0.366513	-0.190897	1.096603	-0.651031	-0.298665	1.077631	-0.473522	-0.306077	1.077639	-0.539418	-0.305814	1.073206	-0.506654	-0.253346	0.849039	-0.332458	-0.239749	0.790702	-0.330491	-0.176458	0.801557	-0.323478	-0.181609	0.863079	-0.324527	-0.233797	0.597376	-0.351777	-0.210908	0.581894	-0.475001	-0.310141	0.437355	-0.360586	-0.305239	0.396725	-0.367809	-0.257479	0.392605	-0.340218	-0.254922	0.436526	-0.334762	-0.269228	0.244769	-0.366305	-0.237161	0.247928	-0.437189	-0.313434	0.240531	-0.410276	-0.191648	0.143809	-0.339982	-0.151978	0.147789	-0.398543	-0.131226	0.132877	-0.393496	-0.262732	0.861974	-0.681430	-0.246659	0.802757	-0.686457	-0.183048	0.814632	-0.694132	-0.191966	0.874035	-0.691012	-0.226461	0.582582	-0.672213	-0.210724	0.580281	-0.553302	-0.307300	0.407533	-0.666250	-0.310077	0.368008	-0.656627	-0.252289	0.364049	-0.678397	-0.256717	0.407382	-0.685550	-0.279307	0.248328	-0.661734	-0.262985	0.248156	-0.586502	-0.327865	0.257298	-0.612692	-0.223007	0.136802	-0.663229	-0.192004	0.137966	-0.599277	-0.175894	0.119849	-0.599395	
4	0.0200	-0.276798	1.518035	-0.504870	-0.199758	1.506647	-0.668076	-0.199347	1.499162	-0.357270	-0.149251	1.460793	-0.510893	-0.141931	1.024006	-0.386495	-0.147824	1.027050	-0.630474	-0.185013	1.087250	-0.366699	-0.191629	1.096460	-0.651097	-0.299265	1.076903	-0.473591	-0.306324	1.076529	-0.538988	-0.306456	1.072495	-0.506677	-0.252606	0.848670	-0.332203	-0.238798	0.790383	-0.330433	-0.175492	0.801417	-0.323796	-0.180860	0.862930	-0.324686	-0.232642	0.597210	-0.351616	-0.210219	0.581572	-0.474866	-0.309642	0.437496	-0.360518	-0.304871	0.396892	-0.367645	-0.257099	0.392551	-0.340145	-0.254380	0.436437	-0.334634	-0.269331	0.244789	-0.366191	-0.237189	0.247923	-0.437114	-0.313664	0.240347	-0.410153	-0.191446	0.144441	-0.339553	-0.151762	0.148397	-0.398081	-0.130913	0.133818	-0.392921	-0.262691	0.861361	-0.681809	-0.246177	0.802251	-0.686774	-0.182599	0.814601	-0.694275	-0.191959	0.873919	-0.691186	-0.225615	0.582482	-0.672562	-0.210140	0.580489	-0.553451	-0.307786	0.407949	-0.666458	-0.310643	0.368381	-0.656586	-0.253044	0.364134	-0.678596	-0.257192	0.407500	-0.685786	-0.280505	0.248571	-0.661841	-0.264108	0.248329	-0.586569	-0.329051	0.257476	-0.612642	-0.223984	0.137490	-0.663834	-0.192878	0.138464	-0.599933	-0.176691	0.120526	-0.600271	
5	0.0250	-0.276618	1.517723	-0.504870	-0.199650	1.506368	-0.667970	-0.199132	1.498680	-0.357379	-0.149252	1.460251	-0.510963	-0.142321	1.023818	-0.386656	-0.148269	1.026840	-0.630626	-0.185657	1.086923	-0.366877	-0.192300	1.096051	-0.651161	-0.299841	1.075967	-0.473674	-0.306550	1.075214	-0.538575	-0.307074	1.071562	-0.506711	-0.251832	0.848075	-0.331964	-0.237819	0.789844	-0.330369	-0.174496	0.801067	-0.324138	-0.180085	0.862562	-0.324890	-0.231458	0.596801	-0.351439	-0.209437	0.581022	-0.474666	-0.309131	0.437432	-0.360407	-0.304526	0.396887	-0.367501	-0.256762	0.392258	-0.340045	-0.253872	0.436127	-0.334495	-0.269455	0.244589	-0.366056	-0.237251	0.247695	-0.437019	-0.313928	0.239964	-0.410053	-0.191383	0.144770	-0.339114	-0.151655	0.148678	-0.397586	-0.130716	0.134375	-0.392321	-0.262630	0.860589	-0.682203	-0.245724	0.801580	-0.687092	-0.182166	0.814339	-0.694420	-0.191917	0.873585	-0.691374	-0.224827	0.582134	-0.672926	-0.209424	0.580449	-0.553689	-0.308297	0.408100	-0.666611	-0.311240	0.368530	-0.656556	-0.253812	0.363976	-0.678804	-0.257729	0.407366	-0.686005	-0.281722	0.248606	-0.661983	-0.265195	0.248233	-0.586664	-0.330202	0.257447	-0.612587	-0.225027	0.137921	-0.664490	-0.193791	0.138695	-0.600645	-0.177534	0.120940	-0.601180	
6	0.0300	-0.276472	1.517212	-0.504878	-0.199580	1.505885	-0.667856	-0.198959	1.498010	-0.357566	-0.149279	1.459486	-0.511039	-0.142686	1.023416	-0.386819	-0.148700	1.026399	-0.630775	-0.186267	1.086387	-0.367045	-0.192941	1.095376	-0.651227	-0.300414	1.074855	-0.473740	-0.306886	1.073831	-0.538326	-0.307681	1.070426	-0.506733	-0.251045	0.847280	-0.331734	-0.236823	0.789102	-0.330294	-0.173497	0.800526	-0.324500	-0.179304	0.862001	-0.325132	-0.230259	0.596174	-0.351249	-0.208602	0.580268	-0.474415	-0.308639	0.437168	-0.360278	-0.304221	0.396630	-0.367348	-0.256455	0.391757	-0.339930	-0.253384	0.435610	-0.334356	-0.269583	0.244118	-0.365918	-0.237361	0.247201	-0.436905	-0.314147	0.239398	-0.410012	-0.191399	0.144861	-0.338636	-0.151659	0.148644	-0.397102	-0.130629	0.134577	-0.391710	-0.262547	0.859659	-0.682599	-0.245293	0.800748	-0.687395	-0.181767	0.813846	-0.694556	-0.191863	0.873039	-0.691568	-0.224089	0.581556	-0.673311	-0.208602	0.580160	-0.554009	-0.308796	0.408035	-0.666735	-0.311843	0.368455	-0.656514	-0.254577	0.363588	-0.679030	-0.258266	0.406992	-0.686196	-0.282982	0.248396	-0.662114	-0.266260	0.247915	-0.586762	-0.331354	0.257173	-0.612507	-0.226124	0.138120	-0.665176	-0.194737	0.138676	-0.601394	-0.178421	0.121088	-0.602141	
7	0.0350	-0.276355	1.516463	-0.504912	-0.199446	1.505152	-0.667739	-0.198819	1.497120	-0.357808	-0.149250	1.458455	-0.511104	-0.143028	1.022766	-0.386981	-0.149130	1.025679	-0.630927	-0.186834	1.085610	-0.367202	-0.193536	1.094422	-0.651303	-0.300971	1.073548	-0.473807	-0.307270	1.072303	-0.538179	-0.308258	1.069075	-0.506770	-0.250253	0.846256	-0.331514	-0.235817	0.788130	-0.330205	-0.172495	0.799766	-0.324880	-0.178527	0.861217	-0.325415	-0.229043	0.595296	-0.351047	-0.207719	0.579283	-0.474126	-0.308156	0.436665	-0.360127	-0.303956	0.396115	-0.367181	-0.256176	0.391012	-0.339798	-0.252918	0.434860	-0.334211	-0.269718	0.243433	-0.365804	-0.237533	0.246471	-0.436786	-0.314351	0.238635	-0.410007	-0.191535	0.144637	-0.338162	-0.151764	0.148303	-0.396614	-0.130657	0.134463	-0.391107	-0.262437	0.858543	-0.682987	-0.244885	0.799719	-0.687679	-0.181391	0.813102	-0.694697	-0.191778	0.872258	-0.691776	-0.223391	0.580730	-0.673722	-0.207653	0.579582	-0.554425	-0.309287	0.407715	-0.666829	-0.312459	0.368147	-0.656485	-0.255333	0.362951	-0.679267	-0.258825	0.406370	-0.686394	-0.284252	0.247970	-0.662267	-0.267283	0.247380	-0.586896	-0.332464	0.256669	-0.612418	-0.227263	0.138061	-0.665876	-0.195719	0.138412	-0.602156	-0.179322	0.120957	-0.603103	
8	0.0400	-0.276268	1.515472	-0.504974	-0.199319	1.504166	-0.667636	-0.198706	1.496011	-0.358067	-0.149248	1.457169	-0.511174	-0.143344	1.021870	-0.387149	-0.149541	1.024696	-0.631077	-0.187355	1.084583	-0.367348	-0.194091	1.093201	-0.651390	-0.301504	1.072057	-0.473868	-0.307708	1.070639	-0.538131	-0.308802	1.067524	-0.506812	-0.249468	0.845005	-0.331308	-0.234814	0.786936	-0.330102	-0.171506	0.798792	-0.325270	-0.177765	0.860215	-0.325741	-0.227814	0.594168	-0.350836	-0.206801	0.578073	-0.473819	-0.307686	0.435921	-0.359964	-0.303695	0.395348	-0.366988	-0.255917	0.390025	-0.339652	-0.252465	0.433863	-0.334062	-0.269962	0.242530	-0.365669	-0.237766	0.245477	-0.436659	-0.314612	0.237644	-0.409913	-0.191749	0.144145	-0.337741	-0.151978	0.147671	-0.396148	-0.130825	0.134019	-0.390525	-0.262298	0.857235	-0.683358	-0.244496	0.798488	-0.687937	-0.181035	0.812100	-0.694847	-0.191659	0.871225	-0.691997	-0.222714	0.579661	-0.674162	-0.206586	0.578703	-0.554934	-0.309761	0.407149	-0.666913	-0.313078	0.367619	-0.656491	-0.256083	0.362080	-0.679528	-0.259386	0.405522	-0.686631	-0.285540	0.247312	-0.662429	-0.268277	0.246606	-0.587020	-0.333606	0.255964	-0.612315	-0.228435	0.137802	-0.666604	-0.196703	0.137938	-0.602978	-0.180287	0.120606	-0.604117	
9	0.0450	-0.276210	1.514241	-0.505064	-0.199210	1.502919	-0.667555	-0.198612	1.494681	-0.358333	-0.149295	1.455638	-0.511246	-0.143635	1.020718	-0.387331	-0.149942	1.023449	-0.631233	-0.187823	1.083316	-0.367481	-0.194621	1.091718	-0.651490	-0.302009	1.070388	-0.473922	-0.308199	1.068855	-0.538178	-0.309318	1.065786	-0.506857	-0.248702	0.843527	-0.331122	-0.233826	0.785517	-0.329994	-0.170542	0.797593	-0.325665	-0.177028	0.859000	-0.326099	-0.226576	0.592796	-0.350616	-0.205870	0.576634	-0.473510	-0.307226	0.434936	-0.359785	-0.303431	0.394333	-0.366780	-0.255670	0.388788	-0.339492	-0.252017	0.432616	-0.333914	-0.270298	0.241388	-0.365584	-0.238069	0.244211	-0.436549	-0.314883	0.236396	-0.409764	-0.192053	0.143404	-0.337303	-0.152286	0.146750	-0.395720	-0.131081	0.133277	-0.389989	-0.262130	0.855726	-0.683694	-0.244125	0.797042	-0.688171	-0.180699	0.810836	-0.695007	-0.191511	0.869940	-0.692222	-0.222052	0.578357	-0.674634	-0.205427	0.577518	-0.555524	-0.310201	0.406363	-0.666983	-0.313680	0.366863	-0.656499	-0.256813	0.360977	-0.679805	-0.259924	0.404446	-0.686885	-0.286809	0.246408	-0.662602	-0.269256	0.245606	-0.587173	-0.334800	0.255099	-0.612322	-0.229618	0.137302	-0.667333	-0.197730	0.137196	-0.603788	-0.181253	0.120040	-0.605107	
